<?xml version="1.0" standalone="no"?>
<!DOCTYPE svg PUBLIC "-//W3C//DTD SVG 20010904//EN"
 "http://www.w3.org/TR/2001/REC-SVG-20010904/DTD/svg10.dtd">
<svg version="1.0" xmlns="http://www.w3.org/2000/svg"
 width="620.000000pt" height="620.000000pt" viewBox="0 0 620.000000 620.000000"
 preserveAspectRatio="xMidYMid meet">
<metadata>
Created by potrace 1.14, written by Peter Selinger 2001-2017
</metadata>
<g transform="translate(0.000000,620.000000) scale(0.100000,-0.100000)"
fill="#000000" stroke="none">
<path d="M2888 6005 c-2 -2 -28 -6 -58 -8 -79 -8 -255 -36 -325 -53 -33 -8
-69 -17 -80 -19 -54 -12 -224 -67 -312 -101 -178 -69 -430 -204 -568 -305 -22
-16 -56 -40 -75 -53 -168 -114 -437 -384 -591 -596 -73 -99 -209 -311 -209
-324 0 -2 -15 -30 -33 -63 -102 -180 -227 -528 -271 -753 -2 -14 -10 -50 -16
-80 -6 -30 -13 -71 -15 -90 -3 -19 -7 -51 -10 -70 -27 -184 -27 -598 0 -780 2
-14 6 -44 9 -67 6 -38 28 -159 40 -208 4 -19 10 -42 39 -155 103 -395 349
-843 637 -1161 126 -139 325 -322 410 -377 14 -9 27 -19 30 -23 14 -18 250
-165 350 -217 114 -60 360 -166 360 -155 0 3 6 1 12 -4 17 -13 154 -56 218
-68 8 -2 35 -8 60 -15 25 -7 54 -14 65 -16 267 -45 308 -49 550 -49 186 0 309
7 355 20 8 2 38 6 65 9 113 13 431 95 520 136 11 5 61 25 110 45 191 77 471
242 630 371 33 27 68 56 79 64 270 221 548 573 717 910 80 161 196 463 213
554 2 12 10 41 16 66 7 25 14 52 16 60 2 13 13 70 29 150 3 14 8 43 10 65 3
22 7 47 10 55 18 69 27 525 13 680 -26 277 -95 564 -199 829 -69 174 -167 365
-260 505 -21 32 -39 60 -39 62 0 7 -159 214 -198 259 -335 385 -748 667 -1207
826 -49 17 -98 32 -108 34 -9 2 -21 6 -25 9 -5 3 -19 7 -33 10 -13 3 -73 17
-134 31 -193 44 -325 58 -567 60 -125 2 -228 1 -230 0z"/>
</g>
</svg>
